<svg height="296" preserveAspectRatio="xMidYMid" viewBox="0 0 256 296" width="256" xmlns="http://www.w3.org/2000/svg" xmlns:xlink="http://www.w3.org/1999/xlink"><linearGradient id="a"><stop offset="0" stop-color="#0052cc"/><stop offset="1" stop-color="#2684ff"/></linearGradient><linearGradient id="b" x1="50.015868%" x2="50.015868%" xlink:href="#a" y1="-98.298677%" y2="38.216761%"/><linearGradient id="c" x1="50.015718%" x2="50.015718%" xlink:href="#a" y1=".763359%" y2="138.581425%"/><path d="m247.205647 167.895843h-61.399843c-4.004791-.045274-7.430872 2.866894-8.031373 6.826667-3.487579 24.952276-24.840634 43.511953-50.035451 43.489882l16.624942 75.936628c60.232229-7.869229 106.591898-57.066559 110.873098-117.659608.156186-2.225669-.620508-4.416005-2.143942-6.046079s-3.656296-2.552963-5.887431-2.54749z" fill="#2684ff"/><path d="m140.950588 165.968314 88.345098-75.9366277c1.728757-1.5246199 2.719119-3.7185208 2.719119-6.0235294s-.990362-4.4989096-2.719119-6.0235294l-88.345098-76.05709809c-2.383764-2.0120367-5.716948-2.46178586-8.548728-1.15348649-2.831779 1.30829936-4.649855 4.13796222-4.66288 7.25732963v151.83309845c.013025 3.119367 1.831101 5.94903 4.66288 7.257329 2.83178 1.3083 6.164964.85855 8.548728-1.153486z" fill="#2684ff"/><path d="m1.20470588 184.480627c8.44971255 63.436349 62.53766492 110.829823 126.53427412 110.873098v-77.141333c-27.8086174.000079-50.3705974-22.50801-50.4370192-50.316549z" fill="url(#b)"/><path d="m0 166.691137v1.204706h77.3019608c.0664218-27.808538 22.6284018-50.316628 50.4370192-50.316549l-16.584784-75.9366273c-63.0091995 8.210448-110.3876572 61.5112133-111.154196 125.0484703" fill="url(#c)"/></svg>