<svg xmlns="http://www.w3.org/2000/svg" xmlns:xlink="http://www.w3.org/1999/xlink" height="296" preserveAspectRatio="xMidYMid" width="256" xmlns:v="https://vecta.io/nano"><linearGradient id="A"><stop offset="0" stop-color="#0052cc"/><stop offset="1" stop-color="#2684ff"/></linearGradient><linearGradient id="B" x1="50.015868%" x2="50.015868%" xlink:href="#A" y1="-98.298677%" y2="38.216761%"/><linearGradient id="C" x1="50.015718%" x2="50.015718%" xlink:href="#A" y1=".763359%" y2="138.581425%"/><path d="M247.206 167.896h-61.4a8.03 8.03 0 0 0-8.03 6.827c-3.488 24.952-24.84 43.512-50.035 43.5l16.625 75.937c60.232-7.87 106.592-57.067 110.873-117.66a8.03 8.03 0 0 0-8.031-8.594zm-106.256-1.928l88.345-75.937a8.03 8.03 0 0 0 0-12.047L140.95 1.928a8.03 8.03 0 0 0-8.549-1.153 8.03 8.03 0 0 0-4.663 7.257v151.833a8.03 8.03 0 0 0 13.212 6.104z" fill="#2684ff"/><path d="M1.205 184.48c8.45 63.436 62.538 110.83 126.534 110.873v-77.14c-27.81 0-50.37-22.508-50.437-50.317z" fill="url(#B)"/><path d="M0 166.69v1.205h77.302c.066-27.81 22.628-50.317 50.437-50.317l-16.585-75.937C48.145 49.853.767 103.154 0 166.69" fill="url(#C)"/></svg>