<svg xmlns="http://www.w3.org/2000/svg" height="108" preserveAspectRatio="xMidYMid" width="256" xmlns:v="https://vecta.io/nano"><path d="M152.984 37.214c-5.597 0-9.765 2.748-9.765 9.362 0 4.983 2.747 8.443 9.464 8.443 5.693 0 9.56-3.355 9.56-8.65 0-6-3.46-9.156-9.258-9.156zm-11.2 46.702c-1.324 1.625-2.644 3.353-2.644 5.4 0 4.067 5.185 5.3 12.3 5.3 5.9 0 13.94-.414 13.94-5.9 0-3.26-3.867-3.462-8.753-3.77zm30.113-46.394c1.828 2.34 3.764 5.597 3.764 10.276 0 11.292-8.85 17.904-21.666 17.904-3.26 0-6.2-.406-8.04-.914l-3.358 5.4 9.97.6c17.602 1.122 27.975 1.632 27.975 15.157 0 11.702-10.273 18.312-27.975 18.312-18.413 0-25.433-4.68-25.433-12.716 0-4.58 2.035-7.015 5.596-10.378-3.358-1.42-4.476-3.962-4.476-6.7 0-2.24 1.118-4.274 2.952-6.208s3.865-3.866 6.306-6.103c-4.984-2.442-8.75-7.733-8.75-15.262 0-11.698 7.733-19.732 23.295-19.732 4.375 0 7.022.402 9.362 1.017h19.84v8.644zm27.27-18.488c-5.8 0-9.156-3.36-9.156-9.16 0-5.793 3.356-8.95 9.156-8.95 5.9 0 9.258 3.156 9.258 8.95 0 5.8-3.357 9.16-9.258 9.16zM186.04 80.17v-8.033l5.2-.7c1.425-.206 1.627-.5 1.627-2.04v-29.9c0-1.116-.304-1.832-1.324-2.135l-5.493-1.935 1.12-8.238h21.06V69.4c0 1.63.098 1.833 1.628 2.04l5.2.7v8.033zm69.227-3.943c-4.377 2.135-10.785 4.068-16.586 4.068-12.106 0-16.682-4.878-16.682-16.38V37.263c0-.6 0-1.017-.817-1.017h-7.12V27.2c8.955-1.02 12.514-5.496 13.632-16.585h9.666v14.45c0 .7 0 1.017.815 1.017h14.343v10.172H237.36V60.56c0 6.003 1.426 8.34 6.917 8.34 2.852 0 5.8-.7 8.24-1.626z" fill="#2f2707"/><path d="M104.53 49.53L58.013 3.017c-2.677-2.68-7.022-2.68-9.702 0l-9.66 9.66L50.904 24.93c2.848-.962 6.112-.317 8.383 1.953 2.28 2.284 2.92 5.577 1.936 8.434l11.81 11.81c2.857-.984 6.153-.347 8.435 1.938 3.19 3.188 3.19 8.354 0 11.545s-8.357 3.2-11.548 0c-2.4-2.4-2.99-5.924-1.777-8.88L57.13 40.716l-.001 28.98a8.25 8.25 0 0 1 2.159 1.544c3.19 3.188 3.19 8.354 0 11.547s-8.36 3.19-11.545 0-3.19-8.36 0-11.547a8.18 8.18 0 0 1 2.672-1.781v-29.25c-.973-.397-1.883-.99-2.672-1.78-2.416-2.413-2.997-5.958-1.76-8.925l-12.078-12.08L2.01 49.314c-2.68 2.682-2.68 7.027 0 9.706l46.516 46.514c2.678 2.68 7.022 2.68 9.703 0l46.3-46.297a6.87 6.87 0 0 0 0-9.707" fill="#de4c36"/></svg>