<svg height="108" preserveAspectRatio="xMidYMid" viewBox="0 0 256 108" width="256" xmlns="http://www.w3.org/2000/svg"><g fill="#2f2707"><path d="m152.983963 37.213516c-5.596931 0-9.765406 2.7482009-9.765406 9.3621187 0 4.9832329 2.747032 8.4433242 9.463817 8.4433242 5.692786 0 9.559672-3.3548858 9.559672-8.6490594 0-6.0002191-3.460092-9.1563835-9.258083-9.1563835zm-11.190356 46.7018813c-1.32442 1.6248401-2.644164 3.3525479-2.644164 5.3900274 0 4.0667762 5.185461 5.2906666 12.309041 5.2906666 5.900858 0 13.938557-.4138082 13.938557-5.8996895 0-3.2613698-3.866886-3.4624292-8.753096-3.768694zm30.113315-46.3944475c1.828238 2.3402374 3.764019 5.5969315 3.764019 10.2762374 0 11.2920548-8.851288 17.9036347-21.666484 17.9036347-3.259032 0-6.209462-.4056256-8.038868-.9141187l-3.358393 5.3911963 9.968804.6090229c17.602046 1.1221918 27.975306 1.6318539 27.975306 15.1566027 0 11.7023562-10.272731 18.3115979-27.975306 18.3115979-18.413297 0-25.43284-4.6793056-25.43284-12.7158353 0-4.5787763 2.035141-7.0148676 5.595762-10.3779361-3.358392-1.419105-4.475908-3.9615708-4.475908-6.7097717 0-2.2397078 1.117516-4.2736804 2.951598-6.2082922 1.830575-1.9299361 3.864548-3.8657169 6.306484-6.1030868-4.984402-2.4419361-8.749589-7.7326027-8.749589-15.2618082 0-11.6976804 7.732603-19.7318722 23.294831-19.7318722 4.375379 0 7.021881.4021188 9.362119 1.0169863h19.839415v8.6443836z"/><path d="m199.165662 19.0340091c-5.800329 0-9.156383-3.3595616-9.156383-9.16105933 0-5.79331507 3.356054-8.94947945 9.156383-8.94947945 5.900859 0 9.258082 3.15616438 9.258082 8.94947945 0 5.80149773-3.357223 9.16105933-9.258082 9.16105933zm-13.126137 61.137242v-8.0330228l5.190137-.7095525c1.42495-.2057352 1.627178-.5096621 1.627178-2.0386484v-29.9099178c0-1.116347-.303927-1.8317443-1.32442-2.1345023l-5.492895-1.9346119 1.118685-8.237589h21.060968v42.216621c0 1.6306849.098192 1.8329132 1.628347 2.0386484l5.188968.7095525v8.0330228z"/><path d="m255.267068 76.2272146c-4.376547 2.1345023-10.78473 4.0679452-16.586228 4.0679452-12.105644 0-16.682082-4.8780274-16.682082-16.3793242v-26.6532237c0-.6090229 0-1.0169863-.817096-1.0169863h-7.120073v-9.054685c8.955324-1.0193242 12.513607-5.4964018 13.632292-16.5850593h9.666046v14.4505571c0 .7095525 0 1.0169863.814758 1.0169863h14.343014v10.1722009h-15.157772v24.3129863c0 6.002557 1.426119 8.3404566 6.916676 8.3404566 2.852237 0 5.79916-.7107215 8.241096-1.6260091z"/></g><path d="m104.528658 49.5295708-46.5160187-46.51251144c-2.676895-2.67923288-7.0218813-2.67923288-9.7022831 0l-9.659032 9.65903194 12.2529315 12.2529315c2.8475617-.9620456 6.1124384-.3167854 8.3825388 1.9533151 2.280621 2.2841279 2.9212055 5.5770594 1.9357808 8.4339726l11.8087306 11.8087306c2.8569133-.9842557 6.1533516-.3471781 8.4351416 1.9381187 3.188895 3.187726 3.188895 8.354484 0 11.544548-3.1900639 3.1900639-8.3568219 3.1900639-11.5480548 0-2.3986849-2.4010229-2.9913425-5.9242375-1.7768037-8.8793425l-11.0126758-11.0126758-.0011689 28.9806027c.7773516.3857535 1.511452.8989224 2.1590502 1.5441827 3.188895 3.187726 3.188895 8.354484 0 11.5468858-3.1900639 3.188895-8.3591598 3.188895-11.5445479 0-3.188895-3.1924018-3.188895-8.3591598 0-11.5468858.7878721-.7867032 1.6996529-1.3816986 2.6722192-1.7814795v-29.2506301c-.9725663-.3974429-1.8831781-.9889315-2.6722192-1.7814795-2.4162192-2.4127123-2.9971872-5.9581369-1.7592694-8.9249315l-12.0775891-12.0799269-31.89479449 31.8924566c-2.68040183 2.6815708-2.68040183 7.0265571 0 9.70579l46.51601829 46.51368c2.6780639 2.679233 7.0218813 2.679233 9.703452 0l46.2985941-46.2974243c2.679232-2.6804018 2.679232-7.027726 0-9.7069589" fill="#de4c36"/></svg>