<svg xmlns="http://www.w3.org/2000/svg" height="194" preserveAspectRatio="xMidYMid" width="256" xmlns:v="https://vecta.io/nano"><linearGradient id="A" x1=".00389%" x2="100.032232%" y1="49.997619%" y2="49.997619%"><stop offset="0" stop-opacity=".1"/><stop offset="1" stop-opacity=".2"/></linearGradient><path d="M238.834 193.595H16.154C7.52 193.595.25 186.55.25 177.69V16.815C.25 8.18 7.292.91 16.154.91h222.68c8.635 0 15.906 7.044 15.906 15.906V177.69c0 8.862-7.044 15.906-15.906 15.906z" fill="#e3e3e3"/><path d="M32.06 193.595l95.207-76.575.682-4.1-98.16-70.667-.227 147.923z" fill="#231f20" opacity=".1"/><path d="M16.154 193.595C7.292 193.595.25 186.55.25 177.69V16.587c0-8.862 7.044-10.452 15.906-10.452S32.06 7.953 32.06 16.587v177.008z" fill="#d54b3d"/><path d="M16.154 8.407c11.36 0 13.633 3.408 13.633 8.18v174.735H16.154c-7.498 0-13.633-6.135-13.633-13.633V16.587c0-5 2.272-8.18 13.633-8.18zm0-2.272C7.292 6.135.25 7.953.25 16.587V177.69c0 8.862 7.044 15.906 15.906 15.906H32.06V16.587c0-8.862-7.044-10.452-15.906-10.452z" fill="#d72b27"/><path d="M238.834 193.595h-15.906V16.133c0-8.862 7.044-9.998 15.906-9.998s15.906 1.136 15.906 9.998v161.784c0 8.635-7.044 15.678-15.906 15.678z" fill="#d54b3d"/><path d="M238.834 8.407c10.225 0 13.633 2.045 13.633 7.726v161.784c0 7.498-6.135 13.633-13.633 13.633H225.2V16.133c0-5.908 3.408-7.726 13.633-7.726zm0-2.272c-8.862 0-15.906 1.136-15.906 9.998v177.69h15.906c8.862 0 15.906-7.044 15.906-15.906V16.133c0-8.862-7.044-9.998-15.906-9.998z" fill="#d72b27"/><path d="M170.667 193.595L1.58 23.195l8.894 3.618 117.702 84.755L254.74 18.76v159.156c0 8.635-7.044 15.678-15.906 15.678z" fill="url(#A)"/><path d="M127.267 117.02L7.065 29.766C.02 24.54-2.024 14.542 3.202 7.498S18.654-1.136 25.925 4.1l101.57 73.848L229.745 3.18c7.044-5.226 17.042-3.636 22.268 3.636 5.226 7.044 3.636 17.042-3.636 22.268z" fill="#d54b3d"/><path d="M238.834 2.272c4.317 0 8.407 2.045 11.134 5.68 4.317 6.135 2.954 14.542-2.954 19.087l-119.747 87.254L8.43 27.95C2.294 23.404.703 14.77 5.02 8.862c2.5-3.408 6.817-5.68 11.36-5.68 2.954 0 5.908.91 8.18 2.727l102.705 74.53 1.363-.91L230.654 4.772c2.5-1.59 5.226-2.5 8.18-2.5zm0-2.272c-3.18 0-6.6.91-9.316 2.954L127.267 77.71 25.698 3.863C22.97 1.818 19.563.91 16.154.91c-5 0-9.998 2.272-13.18 6.6-5 7.044-2.954 17.042 4.1 22.268l120.202 87.48L248.15 29.085c7.044-5.226 8.635-14.997 3.636-22.268C248.605 2.272 243.833 0 238.834 0z" fill="#d72b27"/></svg>