<svg xmlns="http://www.w3.org/2000/svg" height="192" preserveAspectRatio="xMidYMid" width="256" xmlns:v="https://vecta.io/nano"><path d="M94.92 42.186L77.964 44.94l-15.47 6.783-13.14 8.265L36.85 75.246l-7.063 7.482-6.83 2.518-1.806-4.416 3.16-4.56.71-6.43 2.116.086 2.312 2.11-.624-6.55-2.563-1.72.08-2.496-6.07 3.435L14.77 71.2l-1.148 5.796 2.352 4.642 2.192 7.885 4.46 2.11 4.69-.23 4.448-2.584-2.967 15.047 2.967 16.742-3.266 7.73L17.8 139.855l1.902 6.886 5.068 7.98 9.555 6.724 5.068.694 5.635.19-3.516 14.432 12.928 5.297 16.106 2.12 5.51-3.602.424-9.75 6.147-10.172.423-8.054 14.835 1.06 13.775-1.27-13.775 8.265 2.332 9.96 8.688 13.563 8.478 3.603 6.782-2.755 2.754-5.51 14.2-10.81 2.755 2.33 22.253.848 4.45-3.602.423-6.36-1.482-2.753-1.06-17.167-7.417-14.835 1.272-6.57 4.45 2.332 12.504 11.655 6.146.424 6.782-2.755 6.783-5.086 3.4-11.02 19.922 1.272 12.08-4.662 9.75-9.113 6.994-13.14 1.694-15.47-1.483-18.015-3.814-16.105-3.815-5.086-5.297-1.696-9.326 10.172-8.477 2.967-7.418-12.292-7.417-6.782-4.027-2.543-16.107-13.352L172.697 5.3 159.77 4.25l-15.046 2.543-13.14 4.873-9.113 7.418-7.205 8.69-7.417 2.12z" fill="#ff0"/><g fill="#ffc"><path d="M45.747 80.435c-14.522 16.94-11.296 37.482-7.272 57.6l-6.444-16.28-2.375-14.927.678-15.262L36.44 77 45.6 63.422l14.246-11.87 15.602-6.445 18.316-2.374-16.96 19.332c-13.618 4.417-21.647 7.392-31.057 18.37"/><path d="M114.114 28.825c-10.096 9.85-15.6 17.28-22.036 28.812-4.595 8.25-9.75 16.197-14.583 24.332-2.443 4.118-2.675 7.57-3.406 12.32l-7.122-8.48 3.392-10.176 11.533-20.7 24.422-24.082 7.8-2.036m49.86-24.4c-8.087 3.03-21.516 4.03-22.447 13.3-.663 6.6.497 9.903 4.47 16.877-9.813-10.155-12.24-8.583-31.205-5.428l8.14-11.532 14.246-8.82 18.316-4.07 8.48-.34"/></g><g fill="#cc0"><path d="M186.288 129.945c2.7 1.662 2.634 2.866 2.183 4.004l6.37-2.547 4.128-5.542 3.063-7.896-3.915-2.944-17.1 2.184-1.274 3.458.365 4.914 1.64 2.913 2.548 1.274 2.002.18m-1.592-29.257c-8.576 2.475-8.5 3.158-11.042 11.666 3.343-5.364 5.818-8.07 11.042-11.666m57.024-63.67c-1.524.704-3 1.043-3.962 2.437-2.052 3.002-3.8 5.527-7.203 7.634-1.7 1.062-3.476 1.75-5.288 2.315-1.503.467-2.407.05-3.686.97l2.277.397h5.02l6.2-3.82 3.64-3.823 3-6.1m-136.6 19.032c-3.374 9.233-6.322 17.147-11.432 25.505 6.548-7.056 10.52-13.054 14.27-21.032 1.457-3.1 1.732-6.736 5.8-5.384.182 3.096.837 6.2 1.018 9.283 2.193-15.72 8.377-22.293 22.752-28.394l-12.194 1.456-11.468 2.548-5.642 8.2-3.095 7.826"/><path d="M132.957 55.683c3.1 14.6 7.564 28.593 9.503 43.415 1.26 9.63 1.397 14.258-3.45 22.568-5.296-.343-8.584.254-13.707 1.933-20.392 6.685-32.1 16.514-45.83-3.3l13.16 6.202 9.38-1.845 16.564-9.645 12.923-2.55L135.688 95l-3.095-23.117-.364-10.92.727-5.278m35.13 90.278c-1.713 11.854 3.945 18.226 1.602 21.5-.663.926-1.562 2.544-2.565 2.988-3.585 1.583-8.514-.297-8.865.63h-11.83l-4.733-2.002 7.28-8.555 7.098-15.472 4.55-15.653H163l5.096 16.563"/><path d="M148.2 111.502c.96 5.382 2.63 6.66 5.162 11.87-1.685 8.5-4.392 18.607-7.65 26.107-1.374 3.163-2.482 4.907-4.906 7.35-4.1 4.13-8.223 7.726-12.86 11.306-3.34 2.573-5.67 1.283-9.788.7-1.752 3.176-2.235 4.94-5.46 6.552-4.96 2.478-9.395-2.863-13.288-6.007l8.428 13.166 5.825 5.46 4.915.73 6.55-4.005 3.458-6.55 7.28-5.462 8.92-7.644 5.643-8 5.095-9.464 6.554-19.657.545-7.464-8.2-3.64c-2.002-1.88-4.23-3.456-6.234-5.337M82.903 149.42c9.186 0 18.888-.5 27.302-4.37 2.38-3.57 4.732-6.5 7.644-9.645-2.65 5.007-3.482 7.838-4.186 13.468l-2.73 4.004-20.75.546-6.735-.728-.728-.728.182-2.548m-1.272-6.37l-.713-6.464c-1.57 9.447-1.192 15.78-5.54 24.242-3.247 3.762-7.247 7.186-11.827 9.02.387 2.32.503 3.77.278 5.472-.807 6.12-13.047 3.416-18.082 3.172l24.235 6.24 5.46-2.183 1.82-10.557 5.096-9.464.9-5.825-1.64-13.65M67.977 89.72c-.253 4.594-.55 6.5 1.475 10.566 2.575 5.156 5.738 10.002 8.536 15.098l.9-10.193-10.92-15.47m-37.354 34.7l-2.365 5.03c2.17 7.304 4.097 11.93 8.226 18.312-.72 2.585-1.257 3.716-2.912 5.823-3.634-.558-6.86-.72-10.544-.708l12.195 9.465 6.007-1.093 6.007-6.007-8.555-13.287-8.06-17.537M241.746 34.6c2.476 11.137 5.67 21.416 5.373 32.824-.364 13.995-3.1 31.674-16.058 40.113-14.522 9.452-31.57 4.982-47.503.93l19.476 8 18.202.9 12.377-3.64 9.647-8 7.28-15.288 2.73-17.656-2.183-17.3-4.004-17.1-5.335-3.793M25.028 67.795c-6.592 4.3-9.182 6.175-8.46 14.128l1.97 7.145 2.792 1.9 3.45 1.15 6.242-1.478 3.203-9.938-8.87 4.354h-2.053l-2.3-3.532 2.793-4.107 1.478-7.803 1.9.574 2.3 1.807-.33-4.106-1.56-2.628-1.56-1.315-.986 3.86M172.938 5.13c5.85 5.434 13.032 10.156 17.713 16.796 1.8 2.57 3.823 3.885-.03 7.516 4.072-1.163 5.585-1.037 8.845-.642 5.93.718 11.488 9.148 11.842 15.2-.07.565-1.647 1.848-6.232 3.114-.1.176-2.588-.342-2.526-.172.477 1.303 1.114 1.503 2.086 2.113.2 1.45.347 3.687 1.335 5.272 2.885-.052 5.705.263 8.53.822.95 1.578.808 3.155.728 4.733l3.276-.545-.9-7.463 2.912-4.914-4.187-9.466-8-7.644-.77-.04-9.007-5.527-14.7-12.018-10.906-7.123m9.868 44.845c-.3.54-.775 1.403-1.372 2 2.436 2.305 3.64 3.85 4.508 7.1l-8.265 4.103-6.994 6.705c-3.07-1.652-3.833-2.92-5.318-6.07-1.73.458-3.367.898-4.795.375.906.007 1.462-.22 2.368-.78l4.45-4.623 7.86-5.954 5.145-1.676c.654-.27 1.756-.92 2.412-1.2"/><path d="M190.4 58.2c-8.765 4.72-17.16 9.466-21.64 18.43 0-11.377 11.423-16.385 21.64-18.43m-23.382-22.382c-6.5 4.438-11.1 13.394-10.533 22.122-2.12-7.557-1.37-14.7 5.14-19.918l3.295-1.602 2.097-.602"/></g><path d="M254.605 56.424c-1.18-7.443-3.138-14.668-5.853-19.862-.33-.636-.833-1.28-1.454-1.894-1.35-1.33-3.346-2.6-5.4-3.298-2.186-.752-4.5-.905-6.32.05-.475.25-.916.57-1.3.97-1.185 1.2-2.184 2.66-3.186 4.122-1.114 1.628-2.233 3.263-3.573 4.407-1.553 1.328-3.496 2.134-5.33 2.87a36.12 36.12 0 0 0-2.773-5.391c-1.253-1.998-2.68-3.87-4.25-5.74a23.51 23.51 0 0 0-3.882-3.703c-1.352-1.028-2.74-1.903-4.354-2.913-4.327-2.7-8.012-5.942-11.77-9.24l-5.12-4.402C181.073 5.02 172.724 1.44 163.796.88c-8.867-.558-18.23 1.88-29.286 6.532-5.335 2.245-9.298 4.9-12.75 8.1-3.297 3.05-6.096 6.562-9.173 10.663-1.8.128-3.376.392-4.995 1.04-1.784.713-3.58 1.87-5.732 3.768a128.02 128.02 0 0 0-4.4 4.067c-1.323 1.28-2.607 2.58-3.873 3.897-10.065 1.617-18.265 3.402-25.608 6.247-7.5 2.9-14.13 6.9-20.93 12.94-2.778 2.462-5.183 5.065-7.288 7.822-2.068 2.708-3.838 5.556-5.4 8.56-1.36 1.505-2.722 3.024-4.198 4.353-1.438 1.295-2.97 2.386-4.7 3.047l.001.001c-1 .384-1.412.6-1.457.595-.05-.028-.078-.177-.148-.453 2.467-2.355 2.855-5.813 3.083-9.248.296.355.58.8.876 1.246.326.503.66 1.022 1.06 1.527l1.674 2.113.6-2.636c.494-2.208.864-5.15.288-7.7-.373-1.655-1.14-3.13-2.478-4.175l.37-.946 1.22-3.22.725-2.066-2.16.375c-2.874.5-9.05 3.894-13.4 8.407-1.616 1.676-3.004 3.53-3.916 5.474-.948 2.023-1.373 4.14-1.005 6.26.32 1.852 1.247 3.67 2.93 5.384a66.99 66.99 0 0 0 .893 3.277c.347 1.102.72 2.087 1.187 3.056 1.266 2.633 3.284 4.24 5.62 5 1.878.603 3.954.633 6 .187-.397 2.3-.648 4.707-.746 7.334-.128 3.436-.003 7.23.376 11.635a60.64 60.64 0 0 0 .369 3.186 68.69 68.69 0 0 0 .485 2.916l-2.922 7.953-7.56 7.5c-.1.1-.5.494-.883.853-2.465 2.372-2.953 2.843-2.253 7.018a25.45 25.45 0 0 0 2.583 7.649c1.2 2.305 2.834 4.55 4.918 6.64 2.6 2.607 6.862 5.844 11.324 7.54 2.55.97 5.18 1.442 7.645 1.047l-.386 1.14a43.09 43.09 0 0 1-1.301 3.198c-3.026 6.635.08 10.1 4.917 12.305 2.415 1.1 5.285 1.848 7.953 2.544l1.78.47c3.162.855 8.622 2.424 13.6 2.738 5.444.345 10.354-.78 11.67-5.666.52-1.936.824-3.42.946-4.873.114-1.348.07-2.7-.088-4.396 1.552-3.44 2.2-4.407 3.345-6.066l.572-.844c1.217-1.803 1.787-3.083 1.994-4.524.2-1.4.03-2.776-.22-4.895l-.113-.884a78.13 78.13 0 0 0 9.452.647 80.58 80.58 0 0 0 4.755-.121l-1.826.94c-4.204 2.162-4.38 6.257-3.063 10.47 1.186 3.8 3.628 7.678 5.16 10.038 3.22 4.963 6.293 9.163 10.02 11.446 3.906 2.394 8.367 2.676 14.127-.44 2.93-1.587 3.854-3.203 5.098-5.383.38-.665.8-1.4 1.268-2.106 1.2-.802 4.224-3.286 7.18-5.732l3.148-2.585c.782.575 1.726.974 2.867 1.246 1.482.355 3.247.515 5.362.666 1.583.117 6.745.113 10.08.112l2.4.003c3.443.02 6.222-.16 8.32-1.35 2.238-1.27 3.565-3.516 3.855-7.547.127-1.8.15-2.894-.1-4.02-.232-1.056-.685-2.012-1.463-3.413l-.288-10.768c-.06-2.178-.3-3.948-.74-5.7-.438-1.73-1.064-3.393-1.902-5.388-.568-1.35-1.028-2.6-1.478-3.806l-1.022.374 1.022-.374v-.005c-.72-1.942-1.43-3.833-2.425-5.856l.192-1.258 4.75 4.577c2.16 2.08 4.132 3.97 6.45 5.336 2.397 1.414 5.092 2.235 8.582 2.07 3.654-.172 7.563-1.7 10.783-4.086 3.114-2.3 5.613-5.4 6.656-8.83l1.626-5.352c5.124.87 10.624 1.15 15.936.593 5.126-.54 10.08-1.844 14.35-4.122 6.278-3.35 10.985-8.285 14.368-14.144l.002.001c3.78-6.548 5.897-14.264 6.702-22.204.644-6.368.293-15.025-1.033-23.375zm-66.388 53.518c-2.952-.993-5.005-2.443-7.6-4.078.706 3.183 1.028 6.548.088 9.726-1.492 5.04-3.902 13.3 2.943 14.8 2.606.58 3.787.495 7.465-1.403-2.976.674-4.478.5-6.524.13-1.854-.34-2.837-1.518-3.355-2.907.647.467 1.704.72 3.5 1.156 5.074 1.223 9.9-1.22 10.856-4.738.55-2.056.457-3.136 1.626-5.938 1.05.325 2.136.62 3.25.9l-1.886 6.15c-1.63 5.32-7.985 9.6-13.595 9.512-5.187-.092-8.475-3.34-12.056-6.526l-7.193-6.375c-6.455-2.037-11.63-4.417-17.62-8.85 4.263 5 7.155 7.784 13.1 10.277-.865 8.82-3.93 15.25-6.543 23.692-1.183 3.816-10.52 19.1-13.1 20.603-1.845 1.063-13.403 10.797-15.576 12.082-1.62 2.15-3.04 5.122-5.476 6.408-7.418 3.923-12.185-3.588-16.177-9.93-1.818-2.9-6.865-11.214-2.465-13.546 4.16-2.202 6.5-3.777 10.735-6.564.624 1.137 1.693 2.234 2.4 3.37l-.463-3.726c-.28-2.25-.268-4.077-.1-6.34l.517-6.576c-.64 2.228-1.915 4.457-2.552 6.684-.255.892-.466 1.612-.588 2.28a75.03 75.03 0 0 1-28.506.37c-.608-3.527-1.348-7.202-1.968-9.837-.188 2.95-.067 11.108-.083 15.676-.012 3.538-.16 4.75-1.985 7.76-1.708 2.817-2.432 3.457-4.824 8.22.2 3.005.203 5-.595 7.842-1.328 4.74-14.72 1.068-18.253.1-4.35-1.2-13.345-2.96-11.083-8.76 2-5.105 3.252-10.487 4.224-17.63-7.97-11.482-15.383-27.218-16.805-41.16-1.105-10.825-.442-17.488 1.9-24.1 3.712-10.492 8.905-19.574 17.238-26.887 11.244-9.89 21.75-13.85 38.202-16.354-3.957 4.43-7.87 9.1-12.137 14.133-4.318 5.083-6.884 10.217-9.626 15.777-3.788 7.68-3.707 10.602 1.315 17.343 4.327 5.8 6.663 8.425 8.553 14.1-1.56 3.215-2.128 5.934-2.652 10.326 5.298 5.792 9.236 9.76 14.38 10.983 5.046 1.2 9.26.967 13.775-1.34 10.027-5.127 19.305-11.747 30.616-12.02 5.233-12.865 4.704-23.615 2.2-36.062-1.716-8.5-2.405-16.55-2.938-25.216-2.122 8.925-2.52 16.773-.946 25.664 1.898 10.713 3.373 22.55-1.906 31.966-10.228.783-18.994 7.006-28.212 11.78-3.706 1.92-7.563 2.107-11.664.98-3.807-1.046-6.376-3.565-10.477-8.295-.065-4.75 1.007-6.94 3.188-11.242 3.504-6.907 7.37-13.336 11.616-20.13-5.197 6.272-10.12 11.513-14.2 17.82-1.564-4.454-3.8-6.716-7.503-11.73-3.617-4.9-3.995-7.043-1.3-12.713 2.72-5.697 5.025-10.704 9.654-15.702 7.998-8.637 15.324-18.25 24.07-26.755 4.75-4.618 6.678-4.46 12.976-5.413 5.694-.864 11.252-1.952 17.058-3.3-5.615.523-11.043.715-16.5.85l-.17.005c5.38-6.87 8.5-10.697 17.236-14.493 21.508-9.34 35.174-10.35 52.07 3.85 4.38 3.682 8.203 7.255 12.643 10.43-1.6.137-2.997.426-4.832 1.147 2.233-.425 4.812-.004 7.13.42a54.51 54.51 0 0 0 2.003 1.237c3.135 1.847 4.914 2.867 7.034 5.82 2.24 3.12 4.108 6.24 5.754 9.677-1.08-.385-1.983-.7-2.8-.95a5.98 5.98 0 0 0-1.923-.518c-1.356-.13-2.653.203-3.733.87l-.13.06c-1.734.844-4.42 1.806-6.217 2.098.916.317 2.944.435 3.9.057a2 2 0 0 1 .39-.122 6 6 0 0 0-.158 5.803c.167.392.392.744.64.998-.82.303-1.66.648-2.524 1.024 4.008-.6 7.622-.715 11.534-.2l.76 3.87-1.57.124c-1.85-1.48-3.913-1.23-6.73-.588-8.568 1.953-6.554 6.76-10.495 14.004 4.092-5.002 3.788-10.236 10.457-11.816 1.554-.368 2.612-.83 3.664-.67-1.893.952-3.53 2.53-4.18 4.364-1.83 5.17-.694 9.524-2.705 14.352 2.5-4.316 2.642-8.528 4.87-13.07.8-1.63 3.768-4.24 5.6-4.28l1.5-.033c.44 2.873.706 5.726.536 8.1-.3 4.318-1.432 10.727-2.104 13.18 2.256-2.9 3.284-9.044 4.275-13.37 1.032-4.502.77-9.906-.132-14.743-1.24-6.637 5.596-5.557 9.565-8.685 2.917-2.3 4.926-5.972 7.6-8.574 2.653-2.58 6.828 1.2 7.872 3.732 4.524 10.946 6.585 28.168 5.4 39.203-1.342 12.382-7.322 25.9-18.243 31.995-13.923 7.77-30.337 3.023-44.17-1.638zm-19.782 54.994c-.454 5.1-2.157 5.447-6.643 5.368l-12.214-.25c-2.9-.25-4.543-.5-5.433-1.174 4.572-3.356 12.34-17.213 13.855-21.983 1.602-5.04 3.355-9.438 4.66-14.096.6 1.946 1.074 3.876 1.946 5.944 1.457 3.456 2.17 5.6 2.274 9.298l.33 11.733c1.252 2.192 1.447 2.66 1.225 5.16zM30.843 126.234c2.904 10.043 7.85 19.912 13.333 28.2l-.001.145c-.345 1.426-.74 2.815-1.575 3.93-3.92 5.244-13.888-2.453-16.773-5.398-3.154-3.22-5.265-7.035-5.768-10.613-.366-2.6-.01-2.673 1.8-4.518l7.362-7.453 1.613-4.303zM25.3 63.074c-.744 1.598-1.272 2.808-1.632 4.054-1.563 5.398.707 10.216-4.194 14.13 2.303 4.647 2.197 6.5 7.554 4.353 2.066-.83 3.77-2 5.3-3.364a99.36 99.36 0 0 0-2.031 5.806l-.304.993c-3.83 1.626-8.87 2.66-10.798-1.368-.936-1.954-1.465-3.873-2.148-6.342-6.3-6.536 3.122-15.167 8.26-18.262zm3.1 6.924c-.78-.78-1.403-1.307-2.4-1.192a14.61 14.61 0 0 1 .357-1.896 25.19 25.19 0 0 1 .258-.912c1.306.76 1.65 2.14 1.794 4zm189.178-24.414l.702 1.53c-.2.14-.372.287-.54.442-.3-.727-.762-1.387-1.32-1.938l1.16-.034zM35.433 75.253l-.001-.001zm-20.536 6.94h.001zm69.035 72.17h.002zm56.863 16.976h-.001zm23.1-43.926h.001l-.001.001zM25.95 83.1h0-.001l-.042-.112zm221.854 18.238l.03.018zM3.688 81.538c1.004-11.368 3.214-16.275 11.3-24.83-10.13 7.14-12.66 10.383-11.3 24.83m-2.613-9.285c1.116-5.116 2.156-7.046 5.3-11.246C1.267 64.582.6 66.05 1.075 72.253M119.925.934c-6.068 1.462-7.226 2.585-9.046 8.534 2.904-4.356 4.576-5.773 9.046-8.534m9.57-.866c-12.037 2.95-15.574 5.048-19.573 19 5.082-10.217 8.93-13.98 19.573-19m25.925 50.856c1.283-5.684 3.563-11.16 12.4-15.4-11.7 2.93-13.895 7.844-12.4 15.4m74.447.393c6.93-2.47 10.27-8.04 11.928-14.595-2.712 5.494-6.897 10.088-12.583 12.902-3.05 1.5-5 .983-8.406.66 3.464.994 5.66 2.245 9.06 1.033m-47.2 5.57c-.923-1.935-2.54-3.322-4.414-4.008 1.7-.907 3.37-1.86 4.672-3.045-3.815 1.766-8.257 1.335-11.53 3.546-2.884 1.947-6.863 8.12-9.794 10.736 2.123-.824 4.168-2.248 6.05-3.75a7.82 7.82 0 0 0 .764 3.319c.763 1.598 1.997 2.82 3.458 3.584a17.7 17.7 0 0 0-2.557 4.671c5.58-6.612 13.67-11.606 21.274-13.74-2.126-.03-4.643.368-7.207 1.2a7.83 7.83 0 0 0-.716-2.521m-8.027 49.97l-.913 5.553 2.44-6.038c.895-1.955 1.398-2.14 3.294-3.172l5.132-2.47-5.248.975c-3.697.625-4.132 1.512-4.705 5.152M111.5 40.746c-4.3 4.24-8.456 18.8-9.788 24.612 2.098-4.836 7.345-18.363 11.372-21.805 1.112-.95 1.9-1.535 2.723-1.96-2.882 4.832-2.67 6.034-1.66 12.5.86-6.582 3.135-9.125 6.87-14.036 4.094-1.028 7.926-2.258 12.126-3.897l-14.205 1.474c-3.978.378-4.62.313-7.44 3.102"/><path d="M169.94 65.514c-.782-1.636-.083-3.606 1.557-4.386s3.614-.084 4.396 1.553c.075.155.133.315.182.474-1.566 1.162-3 2.53-4.206 4.117-.8-.326-1.528-.918-1.93-1.758m36.634-14.172c.13-1.356 1.287-2.355 2.642-2.223a2.48 2.48 0 0 1 2.001 3.504c-1.24.212-2.48.575-3.758 1.045-.534-.547-.96-1.545-.885-2.326" fill="#ffc"/></svg>