<svg xmlns="http://www.w3.org/2000/svg" height="234" preserveAspectRatio="xMidYMid" width="512" fill="#1a1919" xmlns:v="https://vecta.io/nano"><path d="M49.763 20.98a14.26 14.26 0 0 0-10.16-4.19c-3.984 0-7.54 1.597-10.1 4.2h-.065c-2.575 2.575-4.172 6.168-4.172 10.137 0 3.992 1.597 7.562 4.172 10.112l.065.07c2.55 2.57 6.105 4.145 10.1 4.145s7.577-1.575 10.16-4.145l.03-.07c2.585-2.55 4.162-6.12 4.162-10.112 0-3.97-1.577-7.562-4.162-10.137zm-10.16 196.125c3.994 0 7.577-1.627 10.16-4.172l.03-.075c2.585-2.54 4.162-6.133 4.162-10.082 0-3.992-1.577-7.567-4.162-10.155h-.03c-2.583-2.618-6.166-4.2-10.16-4.2-3.984 0-7.54 1.582-10.1 4.2h-.065a14.32 14.32 0 0 0-4.172 10.155c0 3.95 1.597 7.542 4.172 10.082l.065.075a14.24 14.24 0 0 0 10.09 4.172zm78.06-43.4c3.548-.933 6.76-3.2 8.723-6.655l.263-.504c1.745-3.262 2.064-7.033 1.13-10.38a14.15 14.15 0 0 0-6.68-8.716l-.203-.135a14.29 14.29 0 0 0-10.666-1.286c-3.563.9-6.765 3.262-8.716 6.677-1.976 3.395-2.387 7.296-1.442 10.887.975 3.533 3.26 6.725 6.677 8.72h.02c3.425 1.968 7.296 2.322 10.892 1.392zM54.3 102.266c-3.76-3.75-8.95-6.103-14.696-6.103-5.737 0-10.912 2.352-14.666 6.103a20.64 20.64 0 0 0-6.048 14.658 20.87 20.87 0 0 0 6.048 14.723c3.754 3.728 8.93 6.058 14.666 6.058 5.744 0 10.935-2.33 14.696-6.058 3.75-3.8 6.058-8.98 6.058-14.723a20.61 20.61 0 0 0-6.058-14.658zm-8.264-24.42c8.34 1.374 15.826 5.368 21.55 11.133h.043a41.26 41.26 0 0 1 2.62 2.906l14.304-8.274c-1.923-5.812-2.013-11.887-.466-17.587a30.7 30.7 0 0 1 14.402-18.74l.24-.153c7.337-4.15 15.673-5.015 23.198-2.976a30.88 30.88 0 0 1 18.778 14.417v.023c4.26 7.364 5.123 15.814 3.092 23.42-2.028 7.627-6.993 14.505-14.402 18.76l-1.953 1.153h-.198c-6.853 3.262-14.387 3.774-21.308 1.95-5.682-1.504-10.892-4.68-14.974-9.18l-14.284 8.252c1.642 4.343 2.55 9.024 2.55 13.97a39.87 39.87 0 0 1-2.55 14.036l14.284 8.23c4.082-4.57 9.292-7.673 14.974-9.182a30.5 30.5 0 0 1 23.46 3.107l.474.22v.023c7.133 4.325 11.922 11 13.928 18.54a30.82 30.82 0 0 1-3.092 23.396l-.258.514-.03-.043c-4.278 7.113-11.022 11.933-18.467 13.97-7.635 2.013-16.087 1.153-23.46-3.1v-.058c-7.417-4.288-12.364-11.133-14.402-18.747a30.33 30.33 0 0 1 .466-17.56l-14.304-8.254c-.825.998-1.7 1.953-2.62 2.86l-.043.045c-5.724 5.744-13.2 9.736-21.55 11.065v16.528c5.942 1.24 11.263 4.212 15.43 8.382l.023.043a30.74 30.74 0 0 1 9.047 21.824c0 8.5-3.46 16.193-9.047 21.78l-.023.088c-5.627 5.586-13.344 9.047-21.862 9.047-8.472 0-16.2-3.46-21.824-9.047h-.023v-.088c-5.6-5.6-9.06-13.3-9.06-21.78a30.73 30.73 0 0 1 9.059-21.824v-.043h.023c4.165-4.17 9.495-7.14 15.415-8.382v-16.528c-8.337-1.33-15.8-5.32-21.526-11.065l-.06-.045C4.473 137.727.005 127.858.005 116.924c0-10.912 4.468-20.78 11.604-27.944h.06c5.714-5.764 13.2-9.76 21.526-11.133v-16.46c-5.92-1.284-11.25-4.255-15.415-8.402h-.023v-.045c-5.6-5.6-9.06-13.307-9.06-21.824 0-8.472 3.468-16.235 9.06-21.824l.023-.023C23.394 3.66 31.13.204 39.604.204c8.516 0 16.236 3.456 21.86 9.066v.023h.023c5.586 5.6 9.047 13.352 9.047 21.824 0 8.517-3.46 16.213-9.047 21.824l-.023.045a31.22 31.22 0 0 1-15.43 8.402zM126.39 66.87l-.123-.18c-1.97-3.325-5.12-5.54-8.6-6.497-3.596-.955-7.467-.554-10.912 1.422h.02c-3.438 1.95-5.737 5.14-6.697 8.716-.945 3.548-.534 7.47 1.442 10.887l.068.088a14.09 14.09 0 0 0 8.648 6.544c3.535 1 7.474.577 10.87-1.4l.183-.088c3.342-1.996 5.57-5.145 6.497-8.605.948-3.57.57-7.472-1.394-10.887zm63.47 4.834h15.962v48.723l23.018-25.46h19.14l-27.8 29.497 27.904 37.4h-18.276l-23.995-33.398v33.398H189.86zm76.66 56.995c0 8.297 5.968 20.36 20.345 20.36 8.896 0 14.75-4.636 17.787-10.7 1.6-2.95 2.322-6.1 2.568-9.38.1-3.174-.5-6.474-1.838-9.405-2.798-6.32-9-11.797-18.635-11.797-12.908 0-20.227 10.466-20.227 20.824zm56.533 33.155h-15.97v-9.623c-4.25 7.783-13.15 11.7-22.534 11.7-21.445 0-34-16.7-34-35.574 0-21.07 15.227-35.44 34-35.44 12.183 0 19.613 6.456 22.534 11.822v-9.76h15.97zm18.073-54.578h-8.272v-12.3h8.272v-3.77c0-19.873 15.112-21.072 26.57-21.205v12.3c-4.03 0-10.6 0-10.6 9.403v3.285h10.6v12.3h-10.6v54.578h-15.97zm37.425-35.572h15.957v48.723l23.023-25.46h19.14l-27.8 29.497 27.9 37.4h-18.276L394.5 128.465v33.398h-15.96zm76.66 56.995c0 8.297 5.965 20.36 20.345 20.36 8.884 0 14.738-4.636 17.78-10.7 1.595-2.95 2.33-6.1 2.57-9.38.1-3.174-.5-6.474-1.84-9.405-2.793-6.32-9.004-11.797-18.627-11.797-12.9 0-20.227 10.466-20.227 20.824zm56.528 33.155h-15.964v-9.623c-4.263 7.783-13.154 11.7-22.534 11.7-21.445 0-33.98-16.7-33.98-35.574 0-21.07 15.222-35.44 33.98-35.44 12.176 0 19.613 6.456 22.534 11.822v-9.76h15.964z"/></svg>