<svg xmlns="http://www.w3.org/2000/svg" height="130" preserveAspectRatio="xMidYMid" width="512" xmlns:v="https://vecta.io/nano"><path d="M0 19.164h19.987V91.97h37v18.443H0zM75.43 17.8a11.15 11.15 0 0 1 11.145 11.14c0 6.157-4.993 11.138-11.145 11.138A11.14 11.14 0 0 1 64.291 28.95 11.15 11.15 0 0 1 75.43 17.81zm-9.607 30.74h19.213v61.837H65.824zm29.84.008h18.442V57h.256c2.56-4.865 8.836-9.985 18.185-9.985 19.47 0 23.054 12.804 23.054 29.45v33.913h-19.212V80.322c0-7.176-.132-16.395-9.994-16.395-9.987 0-11.52 7.816-11.52 15.88v30.58h-19.2zm69.682-29.4h19.205v54.535l21.758-25.17h23.547l-25.198 28.63 24.67 33.258h-24.143L184.8 79.844h-.25v30.567h-19.205zM286.552 99.68c-6.153 7.816-16.262 12.302-26.256 12.302-19.207 0-34.577-12.814-34.577-32.665s15.37-32.654 34.577-32.654c17.94 0 29.204 12.804 29.204 32.654v6.02h-44.57c1.526 7.3 7.04 12.04 14.47 12.04 6.278 0 10.5-3.203 13.704-7.56zM270.3 72.28c.126-6.405-4.868-11.783-11.8-11.783-8.45 0-13.062 5.763-13.568 11.783zm92.277 38.097h-17.68v-8.2h-.25c-2.955 4.48-10.376 9.735-19.088 9.735-18.448 0-30.613-13.315-30.613-32.144 0-17.293 10.757-33.173 28.43-33.173 7.947 0 15.374 2.177 19.73 8.195h.252V19.158h19.218zM329.5 63.502c-9.598 0-15.36 6.4-15.36 15.75 0 9.36 5.762 15.754 15.36 15.754 9.615 0 15.377-6.395 15.377-15.754 0-9.34-5.762-15.75-15.377-15.75z" fill="#1a1918"/><path d="M501.764 0h-110.42c-5.277 0-9.563 4.182-9.563 9.34v110.885c0 5.16 4.287 9.35 9.563 9.35h110.42c5.286 0 9.592-4.19 9.592-9.35V9.34c0-5.157-4.307-9.34-9.592-9.34" fill="#006087"/><path d="M410.603 17.84a11.15 11.15 0 0 1 11.138 11.14c0 6.15-4.992 11.146-11.138 11.146a11.15 11.15 0 0 1-11.144-11.146c0-6.147 4.986-11.14 11.144-11.14zM401 48.578h19.218v61.837H401zm31.263 0H450.7v8.448h.256c2.564-4.86 8.834-9.987 18.184-9.987 19.46 0 23.054 12.807 23.054 29.457v33.92H472.99v-30.07c0-7.174-.132-16.397-9.987-16.397-10.002 0-11.533 7.812-11.533 15.878v30.6h-19.205z" fill="#fff"/></svg>