<svg xmlns="http://www.w3.org/2000/svg" height="416" preserveAspectRatio="xMidYMid" width="256" xmlns:v="https://vecta.io/nano"><linearGradient id="A" x1="0%" x2="100%" y1="50%" y2="50%"><stop offset="0" stop-color="#4f4f4f"/><stop offset="1"/></linearGradient><linearGradient id="B" x1="0%" x2="100%" y1="50%" y2="50%"><stop offset="0" stop-color="#c40000"/><stop offset="1" stop-color="red"/></linearGradient><g fill="url(#A)"><path d="M0 288v-32c0-5.394 116.377-14.428 192.2-32 36.63 8.49 63.8 18.97 63.8 32v32c0 13.024-27.172 23.51-63.8 32C116.377 302.425 0 293.4 0 288" transform="matrix(1 0 0 -1 0 544)"/><path d="M0 160v-32c0-5.394 116.377-14.428 192.2-32 36.63 8.49 63.8 18.97 63.8 32v32c0 13.024-27.172 23.51-63.8 32C116.377 174.425 0 165.4 0 160" transform="matrix(1 0 0 -1 0 288)"/></g><g fill="url(#B)"><path d="m0 224v-96c0 8 256 24 256 64v96c0-40-256-56-256-64" transform="matrix(1 0 0 -1 0 416)"/><path d="M0 96V0c0 8 256 24 256 64v96c0-40-256-56-256-64" transform="matrix(1 0 0 -1 0 160)"/><path d="m0 352v-96c0 8 256 24 256 64v96c0-40-256-56-256-64" transform="matrix(1 0 0 -1 0 672)"/></g></svg>