<svg xmlns="http://www.w3.org/2000/svg" height="209" preserveAspectRatio="xMidYMid" width="256" xmlns:v="https://vecta.io/nano"><path d="M256 25.45c-9.42 4.177-19.542 7-30.166 8.27 10.844-6.5 19.172-16.793 23.093-29.057-10.148 6.018-21.388 10.39-33.35 12.745C205.995 7.2 192.345.822 177.24.822c-29.007 0-52.523 23.516-52.523 52.52 0 4.116.465 8.125 1.36 11.97-43.65-2.2-82.35-23.1-108.255-54.875-4.52 7.757-7.11 16.78-7.11 26.404 0 18.22 9.273 34.297 23.366 43.715a52.31 52.31 0 0 1-23.79-6.569l-.004.66c0 25.447 18.104 46.675 42.13 51.5-4.408 1.2-9.047 1.842-13.838 1.842a52.45 52.45 0 0 1-9.881-.942c6.683 20.867 26.08 36.05 49.062 36.475a105.38 105.38 0 0 1-65.228 22.483A106.84 106.84 0 0 1 0 185.271c23.243 14.902 50.85 23.596 80.51 23.596 96.606 0 149.433-80.03 149.433-149.435a151.45 151.45 0 0 0-.152-6.794c10.26-7.405 19.166-16.656 26.208-27.188" fill="#55acee"/></svg>